<svg xmlns="http://www.w3.org/2000/svg" viewBox="0 0 100 100">
  <!-- Shadow (screen-space, not rotated) -->
  <circle cx="50" cy="53" r="42" fill="#2a2238"/>
  <!-- Rotated badge -->
  <g transform="rotate(-8 50 50)">
    <circle cx="50" cy="50" r="42" fill="#4ec3ff" stroke="#2a2238" stroke-width="4"/>
    <path fill="#2a2238" d="M41.68 65.13Q39.33 65.13 36.96 64.64Q34.59 64.16 32.59 63.22Q30.60 62.27 29.38 60.91Q28.16 59.54 28.16 57.73Q28.16 55.42 29.63 54.04Q31.10 52.65 33.07 52.74Q34.63 52.78 36.18 53.39Q37.74 54 39.35 54.58Q40.97 55.17 42.61 55.17Q44.25 55.17 44.88 54.75Q45.51 54.33 45.51 53.62Q45.51 52.78 44.62 52.23Q43.74 51.69 42.40 51.39L40.34 50.89Q37.15 50.13 34.63 49.19Q32.11 48.24 30.66 46.67Q29.21 45.09 29.21 42.45Q29.21 39.55 30.81 37.72Q32.40 35.89 35.13 35.05Q37.86 34.21 41.22 34.21Q44.67 34.21 47.27 34.93Q49.87 35.64 51.32 36.99Q52.77 38.33 52.77 40.26Q52.77 42.32 51.66 43.47Q50.55 44.63 48.70 44.63Q47.48 44.63 46.16 44.21Q44.83 43.79 43.39 43.39Q41.94 42.99 40.30 42.99Q38.83 42.99 38.07 43.43Q37.32 43.87 37.32 44.59Q37.32 45.47 38.32 45.89Q39.33 46.31 41.64 46.90L43.99 47.44Q46.89 48.16 49.08 49.17Q51.26 50.17 52.48 51.81Q53.70 53.45 53.70 56.10Q53.70 59.29 52.18 61.28Q50.67 63.28 47.98 64.20Q45.30 65.13 41.68 65.13M57.81 38.88Q57.77 37.36 58.34 36.04Q58.90 34.72 60.21 33.90Q61.51 33.08 63.57 33.08Q65.67 33.08 66.95 33.90Q68.23 34.72 68.80 36.04Q69.36 37.36 69.32 38.88Q69.28 40.26 68.90 41.48Q68.52 42.70 68.02 43.98Q67.51 45.26 67.09 46.79Q66.67 48.33 66.55 50.30Q66.42 51.94 65.62 52.72Q64.83 53.49 63.57 53.49Q62.26 53.49 61.47 52.74Q60.67 51.98 60.58 50.30Q60.46 48.33 60.04 46.79Q59.62 45.26 59.11 43.98Q58.61 42.70 58.23 41.48Q57.85 40.26 57.81 38.88M63.57 65.80Q61.09 65.80 59.70 64.47Q58.32 63.15 58.32 60.97Q58.32 58.74 59.72 57.36Q61.13 55.97 63.57 55.97Q65.92 55.97 67.30 57.34Q68.69 58.70 68.69 60.93Q68.69 63.11 67.35 64.45Q66 65.80 63.57 65.80"/>
  </g>
</svg>
